# xmcd CD database file
#
# Track frame offsets:
#	182
#	15312
#	28615
#	46712
#	61270
#	74627
#	88860
#	101795
#	113767
#	129547
#
# Disc length: 1953 seconds
#
# Revision: 2
# Processed by: cddbd v1.5.2PL0 Copyright (c) Steve Scherf et al.
# Submitted via: CDex 1.60beta1
#
DISCID=80079f0a
DTITLE=Amie Comeaux - Moving Out
DYEAR=1994
DGENRE=Country
TTITLE0=Moving Out
TTITLE1=Takin' It Back
TTITLE2=I Want the First To Last
TTITLE3=Blue
TTITLE4=Who's She To You
TTITLE5=You Belong To Me
TTITLE6=One Step Ahead Of You
TTITLE7=I Heard It From My Heart
TTITLE8=Oh No, Not Love Again
TTITLE9=Written In The Stars
EXTD=YEAR: 1994
EXTT0=
EXTT1=
EXTT2=
EXTT3=
EXTT4=
EXTT5=
EXTT6=
EXTT7=
EXTT8=
EXTT9=
PLAYORDER=
